<?xml version="1.0" encoding="UTF-8"?>
<svg width="181px" height="225px" viewBox="0 0 181 225" version="1.1" xmlns="http://www.w3.org/2000/svg" xmlns:xlink="http://www.w3.org/1999/xlink">
    <!-- Generator: Sketch 64 (93537) - https://sketch.com -->
    <title>人物/女性/2</title>
    <desc>Created with Sketch.</desc>
    <g id="页面-1" stroke="none" stroke-width="1" fill="none" fill-rule="evenodd">
        <g id="人物/女性/2">
            <g>
                <g id="头" transform="translate(69.000000, 0.000000)">
                    <path d="M16.5048759,14.5230769 C35.8878248,10.5787413 32.8814015,33.4113287 32.8814015,33.4113287 C32.8814015,33.4113287 36.0799416,32.7676923 36.2843212,34.5253147 C36.9849343,40.5160839 33.1094891,42.0839161 33.1094891,42.0839161 C33.1094891,42.0839161 33.0546049,42.2605905 32.9529936,42.5622111 C33.4127654,44.1049024 34.0129914,45.6018233 34.7445255,47.034965 C35.7994835,48.9365738 37.0313123,50.7325464 38.4233577,52.3986014 C38.4233577,52.3986014 37.7987737,55.5548951 35.9708029,56.9370629 C33.7496058,58.6204196 29.8394161,59 29.8394161,59 C29.8394161,59 28.8702482,57.4032867 27.7956204,55.6993007 C27.161855,54.6938983 26.4746117,53.6124186 25.8675526,52.6602004 C25.5629816,52.8590904 25.2517029,53.046431 24.9343066,53.2237762 C24.9343066,53.2237762 18.8805839,56.2356643 14.3065693,52.8111888 C8.69267153,48.6069231 4.52659854,36.9306993 4.52659854,36.9306993 C4.52659854,36.9306993 -4.29973723,18.7562238 16.5048759,14.5230769 Z" id="形状_28" fill="#FFDEC4"></path>
                    <path d="M16.0585109,6.53125874 C18.1351361,3.1857439 21.5611152,0.928024792 25.4309489,0.354825175 C35.8081168,-1.28727273 39.783708,3.27594406 39.783708,3.27594406 C39.783708,3.27594406 43.702073,7.15426573 44.3871533,12.3734965 C44.8228789,16.0335054 44.9808474,19.7217744 44.8596788,23.4060839 C44.8596788,23.4060839 44.3691679,30.4778322 46.8372555,34.0508392 C49.3339562,37.6651049 55.9252866,38.5397902 55.9252866,38.5397902 C55.9252866,38.5397902 56.0604964,46.5398601 45.8120876,46.2427972 C40.8742774,46.0983916 35.953635,39.8559441 35.953635,39.8559441 C35.953635,39.8559441 40.1462774,33.6011189 39.9884964,26.8759441 C39.8478832,20.8934266 35.3552117,14.3539161 35.3552117,14.3539161 C35.3552117,14.3539161 33.1654891,11.1233566 28.145927,9.0893007 C23.5347153,7.22027972 16.0585109,6.53125874 16.0585109,6.53125874 Z" id="形状_22" fill="#502901"></path>
                    <path d="M13.0524964,7.69888112 C13.0524964,7.69888112 13.8741022,4.34454545 18.3009635,4.2248951 C32.1170219,3.85769231 30.408,9.06867133 30.408,9.06867133 C27.8580757,8.09748006 25.1890344,7.4811922 22.4743942,7.23678322 C18.0585693,6.88608392 13.0524964,7.69888112 13.0524964,7.69888112 Z" id="微博_杨锦Vincent" fill="#FF9085"></path>
                    <path d="M20.3247299,20.2002797 C20.3247299,20.2002797 20.6108613,24.7057343 22.6546569,27.7918881 C24.1584818,30.0652448 27.5855182,31.1751049 27.5855182,31.1751049 L28.7762336,38.0158042 L31.3984234,36.089021 L32.8834453,33.4113287 C32.8834453,33.4113287 35.7038832,32.7470629 36.286365,34.5253147 C37.5686423,38.4283916 32.5789197,41.790979 32.5789197,41.790979 L32.5956788,43.693007 C32.5956788,43.693007 48.6570511,33.4484615 37.2457226,14.716993 C32.6794745,7.22440559 25.4959416,7.58748252 25.4959416,7.58748252 C25.4959416,7.58748252 12.206365,1.55545455 2.94470073,15.7814685 C-3.10820438,25.0811888 3.14621898,39.006014 3.14621898,39.006014 C3.14621898,39.006014 8.18417518,37.9456643 10.6498102,34.7522378 C12.3065109,32.6026573 12.4720584,27.5030769 12.4720584,27.5030769 C12.4720584,27.5030769 11.795562,24.0208392 14.3077956,21.7763636 C15.8524964,20.3941958 20.3247299,20.2002797 20.3247299,20.2002797 Z" id="站酷_杨锦Vincent" fill="#5A2F02"></path>
                </g>
                <path d="M63.706104,99.0031767 L114.991919,111.942595 L139.572147,119.337142 C139.572147,119.337142 139.582079,119.442806 139.596085,119.640699 L154.531335,122.284154 L180.520768,128.103359 C180.520768,128.103359 184.945159,154.655562 166.907255,156.368071 C146.015638,158.354819 129.588583,151.01346 120.450988,145.454196 C117.718997,145.359717 115.08664,145.109583 112.558735,144.734884 C112.398511,149.115459 111.543762,155.715534 108.327898,161.771618 C98.0723852,181.087223 77.8006273,205 77.8006273,205 L66.6622989,202.506055 L88.3636576,136.589809 C78.7071648,131.349692 73.3424082,125.742425 73.3424082,125.742425 C73.3424082,125.742425 73.7895915,137.135597 67.8578128,146.571023 C56.6683305,164.373634 35.533971,185.883911 35.533971,185.883911 L25,182.716601 L58.322166,101.817178 C59.0345042,100.930087 59.898448,100.178401 60.8732558,99.5975669 C61.7572312,99.1753943 62.7283562,98.9716322 63.706104,99.0031767 Z" id="下身" fill="#262626"></path>
                <path d="M76.6382877,58 L77.8791503,54.186299 C77.8791503,54.186299 80.3918969,52.3938595 79.9472545,50.3725979 C79.2569213,47.2326507 75.3974251,45.2876632 75.3974251,45.2876632 C75.3974251,45.2876632 72.3407671,43.4358995 71.6748375,41.0502176 C70.7346773,37.6772109 72.0884583,31.7278373 72.0884583,31.7278373 C72.0884583,31.7278373 72.4131507,30.3379551 70.8475958,30.032859 C69.4375623,29.7574251 69.1931124,31.3040927 69.1931124,31.3040927 C69.1931124,31.3040927 66.9479784,37.7789096 67.0009219,41.9824556 C67.0654796,44.6673945 68.1485466,47.2209391 70.0203541,49.1013642 L68.3658707,55.0337881 L76.6382877,58 Z" id="手" fill="#FFDEC4"></path>
                <path d="M84,59.2066344 L84.8588755,55.427024 C84.8588755,55.427024 83.7231334,52.6651588 85.0579839,51.2288248 C87.131538,48.9922475 91.1517981,49.3697982 91.1517981,49.3697982 C91.1517981,49.3697982 94.4859789,49.4108363 96.1746688,47.785727 C98.5588633,45.4916963 100.363405,39.8940974 100.363405,39.8940974 C100.363405,39.8940974 100.777331,38.5849816 102.174623,39.1348923 C103.433286,39.6273497 102.877982,41.0267494 102.877982,41.0267494 C102.877982,41.0267494 101.529387,47.5148754 99.4530835,50.9497656 C98.1052932,53.1249505 96.0052623,54.6717464 93.5917587,55.2669753 L92.0358076,61 L84,59.2066344 Z" id="手-2" fill="#FFDEC4"></path>
                <path d="M106.06829,51.098494 C106.06829,51.098494 119.104094,49.2643438 132.765852,61.4259163 C169.502108,94.130797 180.520768,128.103359 180.520768,128.103359 L125.783413,120.085675 C125.783413,120.085675 119.794534,118.602657 114.282925,117.193996 C107.084441,115.355715 92.9248753,109.758252 92.9248753,109.758252 C92.9248753,109.758252 88.9407776,115.665538 78.9599968,113.476124 C70.8566707,111.699808 70.7453624,102.735605 70.7453624,102.735605 L67.4595086,101.909411 C67.4595086,101.909411 60.4035484,108.271104 51.4409715,103.148702 C42.4254102,97.9973839 47.3336543,87.4510203 47.3336543,87.4510203 C47.3336543,87.4510203 53.1459189,76.3180591 58.8341425,67.6223696 C61.7740419,63.2246709 65.0711745,59.0795223 68.6917038,55.2294629 L78.1385333,58.534238 L75.674143,75.4712105 L82.2458505,59.3604318 L92.5141436,61.0128194 L96.210729,54.816366 C97.3439587,56.0861917 99.1114674,56.5710153 100.728778,56.0556567 C106.838823,54.2091136 106.06829,51.098494 106.06829,51.098494 Z" id="上身" fill="#E13538"></path>
                <g id="脚" transform="translate(0.000000, 183.000000)">
                    <path d="M63.2,24.8085437 L61.99525,28.8291262 C61.3173446,29.5396592 60.4879889,30.0913176 59.5676458,30.4438835 C58.2561414,30.8753271 56.8971035,31.1491319 55.5197188,31.2594175 C55.5197188,31.2594175 48.1216979,31.7242718 44.5913854,34.1097087 C41.2540469,36.3605825 41.7733073,40.5442718 41.7733073,40.5442718 L41.7761875,41.7471845 L78.6329792,41.6248544 L78.5918333,25.1592233 L63.1979427,24.0052427 L63.2,24.8085437 Z" id="脚-2" fill="#1B1B1B"></path>
                    <polygon id="腿" fill="#FFDEC4" points="65.2910313 24.2091262 67.4791667 19.1650485 77.3541667 21.6116505 76.1197917 24.8737864"></polygon>
                    <path d="M21.6427083,5.64349515 L20.4379583,9.66407767 C19.7600529,10.3746107 18.9306973,10.926269 18.0103542,11.278835 C16.6988498,11.7102786 15.3398118,11.9840833 13.9624271,12.0943689 C13.9624271,12.0943689 6.56440625,12.5592233 3.03409375,14.9446602 C-0.303244792,17.195534 0.216015625,21.3792233 0.216015625,21.3792233 L0.218895833,22.5821359 L37.0756875,22.4598058 L37.0345417,5.99417476 L21.640651,4.84019417 L21.6427083,5.64349515 Z" id="脚-3" fill="#1B1B1B"></path>
                    <polygon id="腿_" fill="#FFDEC4" points="23.7337396 5.04407767 25.921875 0 35.796875 2.44660194 34.5625 5.70873786"></polygon>
                </g>
            </g>
        </g>
    </g>
</svg>