<?xml version="1.0" encoding="UTF-8"?>
<svg width="197px" height="360px" viewBox="0 0 197 360" version="1.1" xmlns="http://www.w3.org/2000/svg" xmlns:xlink="http://www.w3.org/1999/xlink">
    <!-- Generator: Sketch 64 (93537) - https://sketch.com -->
    <title>人物/女性/1</title>
    <desc>Created with Sketch.</desc>
    <g id="页面-1" stroke="none" stroke-width="1" fill="none" fill-rule="evenodd">
        <g id="人物/女性/1">
            <g>
                <g id="头" transform="translate(110.000000, 0.000000)">
                    <path d="M17.5626204,15.1018519 C37.4055564,11.2667593 34.8240364,33.6264388 34.6512866,34.9714712 L34.6429051,35.0345679 C34.6429051,35.0345679 38.0166715,34.3907407 38.2173577,36.2314815 C38.7920916,41.5181202 35.0243604,43.8370646 33.8152233,44.4394836 L33.8479124,43.8061728 C33.6945516,46.4627943 33.6945516,49.1260946 33.8479124,51.782716 C34.1734891,56.682716 34.6420438,58.1604938 34.6420438,58.1604938 L40.6475547,58.7611111 C40.6475547,58.7611111 36.3810365,69.0364198 27.0844453,69.8271605 C21.5517956,70.2981481 16.064365,62.5895062 16.064365,62.5895062 L21.533708,61.3493827 C21.9891151,59.781244 22.052782,58.128958 21.7247089,56.5372914 C19.3325535,56.9158136 16.8400627,56.51007 14.6423358,55.308642 C8.09635036,51.9209877 5.2479854,39.0228395 5.2479854,39.0228395 C5.2479854,39.0228395 -4.39571533,19.3450617 17.5626204,15.1018519 Z" id="形状_24" fill="#FFDEC4"></path>
                    <path d="M17.1646934,6.72777778 C19.382681,3.24370845 23.0131182,0.912095823 27.0952117,0.35 C38.0429416,-1.27469136 42.1893066,3.53888889 42.1893066,3.53888889 C42.1893066,3.53888889 46.2805474,7.63518519 46.9558175,13.1098765 C47.3815431,16.946975 47.5144287,20.8111035 47.3533139,24.6685185 C47.3533139,24.6685185 46.7727883,32.0703704 49.3395036,35.8339506 C51.9372263,39.6450617 58.8708143,40.617284 58.8708143,40.617284 C58.8708143,40.617284 58.9405693,49 48.1474453,48.5895062 C42.9464015,48.3950617 37.8194307,41.8141975 37.8194307,41.8141975 C37.8194307,41.8141975 42.2935255,35.3024691 42.1888759,28.2592593 C42.095854,21.9895062 37.422365,15.1018519 37.422365,15.1018519 C37.422365,15.1018519 35.1446204,11.6969136 29.8751022,9.5191358 C25.0345182,7.51851852 17.1646934,6.72777778 17.1646934,6.72777778 Z" id="形状_22" fill="#502901"></path>
                    <path d="M13.9868759,7.92469136 C13.9868759,7.92469136 14.883073,4.42037037 19.5479489,4.3382716 C34.1067372,4.07469136 32.2587883,9.5191358 32.2587883,9.5191358 C29.5813892,8.4781369 26.7751186,7.80798253 23.9173942,7.52716049 C19.2680219,7.12098765 13.9868759,7.92469136 13.9868759,7.92469136 Z" id="微博_杨锦Vincent" fill="#FF9085"></path>
                    <path d="M21.5328467,21.0820988 C21.5328467,21.0820988 21.7912409,25.8049383 23.9161022,29.054321 C25.4793869,31.4524691 29.0796788,32.6450617 29.0796788,32.6450617 L30.2717372,39.8222222 L33.0520584,37.8259259 L34.6407518,35.0345679 C34.6407518,35.0345679 37.6165912,34.3648148 38.2152044,36.2314815 C39.5304307,40.3320988 34.2428248,43.8061728 34.2428248,43.8061728 L34.2428248,45.8024691 C34.2428248,45.8024691 51.2576496,35.2203704 39.4068321,15.4993827 C34.664438,7.60925926 27.0930584,7.92469136 27.0930584,7.92469136 C27.0930584,7.92469136 13.1470949,1.48209877 3.25964234,16.2987654 C-3.20021168,25.9777778 3.25964234,40.617284 3.25964234,40.617284 C3.25964234,40.617284 8.5769635,39.558642 11.2039708,36.2314815 C12.9696642,33.9975309 13.1901606,28.6567901 13.1901606,28.6567901 C13.1901606,28.6567901 12.5088613,25.0055556 15.1763504,22.6765432 C16.8205985,21.2419753 21.5328467,21.0820988 21.5328467,21.0820988 Z" id="站酷_杨锦Vincent" fill="#5A2F02"></path>
                </g>
                <path d="M172,112.084085 L181.793714,127.829049 C182.115076,128.640094 182.260191,129.510016 182.219452,130.381236 C181.867266,139.53629 179.630842,172.9911 179.630842,172.9911 L174.521115,182.776643 C174.321829,183.025339 174.321829,183.378676 174.521115,183.627372 C175.343171,184.646519 175.798331,184.478101 175.798331,184.478101 L177.927455,183.627372 C177.927455,183.627372 175.008292,191.270978 174.094944,194.691167 C173.835348,195.658494 174.946854,196.392626 174.946854,196.392626 L180.05658,198.094084 C180.281268,198.212186 180.544472,198.233802 180.785478,198.153944 C181.026485,198.074087 181.224482,197.899652 181.333795,197.670878 C182.689322,194.790491 186.348336,189.085857 187.721169,186.607083 C187.960787,186.068837 188.104844,185.493115 188.146908,184.905625 L189.066745,173.418624 C189.066745,173.418624 194.648071,138.914437 196.271415,129.102984 C196.437138,128.118083 196.437138,127.112492 196.271415,126.127591 L187.329611,104 C187.329611,104 183.499263,106.604008 179.664589,108.681169 C177.189496,109.986615 174.628792,111.123514 172,112.084085 L172,112.084085 Z M78.776016,91.4854903 L71.9633363,94.8884064 C71.9633363,94.8884064 38.4844629,81.4581159 28.5297992,77.4463024 C27.7277834,77.0915062 26.8490317,76.9444584 25.9749362,77.0187787 L1.27734984,78.7202367 C1.27734984,78.7202367 -0.0106818756,78.6554604 6.69025405e-05,80.4216947 C0.00489391941,81.1990106 0.851611443,81.6999475 0.851611443,81.6999475 L14.4778361,83.4014055 C14.4778361,83.4014055 15.7524553,87.7155085 19.5875622,89.3565086 C24.5480203,91.4811719 30.6589238,91.0579666 30.6589238,91.0579666 L71.5375979,111.056576 L86.0148667,107.226136 L78.776016,91.4854903 Z" id="胳膊" fill="#FFDEC4"></path>
                <path d="M126.785297,61.8270205 C126.785297,61.8270205 131.077521,69.2478118 136.967742,68.6387713 C145.669873,67.7360092 150.119439,58 150.119439,58 C150.119439,58 158.447395,58.2332496 163.271135,60.5527868 C168.603976,63.1142124 173.877759,72.893416 173.877759,72.893416 L190,103.107872 C187.226451,105.498309 184.244701,107.634896 181.090522,109.491999 C177.698412,111.357804 174.150097,112.923073 170.486054,114.169948 L163.273291,106.511588 C163.273291,106.511588 162.953001,117.426803 164.122079,126.510577 C165.004811,133.14018 166.423696,139.68695 168.364729,146.086262 C168.364729,146.086262 160.404911,151.904543 145.878945,152.898013 C134.123503,153.701428 122.544803,149.494297 122.544803,149.494297 C122.544803,149.494297 123.513862,136.168837 122.544803,125.236344 C122.199788,120.895029 121.346135,116.609476 120.001455,112.46809 C120.001455,112.46809 116.998149,107.634641 115.334627,103.107872 C114.09011,99.7171146 114.06209,98.0022985 114.06209,98.0022985 C110.475194,99.8930362 106.79337,101.597157 103.031288,103.107872 C95.1473395,106.222186 86.0611204,108.213446 86.0611204,108.213446 L78,90.7672429 C78,90.7672429 89.9696861,84.2189776 101.334142,76.7247559 C107.532583,72.6342498 113.206836,67.3299822 117.456382,64.8074314 C120.210096,63.1703651 126.785297,61.8270205 126.785297,61.8270205 Z" id="衣服" fill="#F39800"></path>
                <g id="下半身" transform="translate(100.000000, 146.000000)">
                    <path d="M38.9777012,134.919434 L42.4242317,137.729535 C42.8447701,138.677204 43.0481412,139.706673 43.0195061,140.742828 C42.910107,142.19237 42.6266727,143.623532 42.1752988,145.005535 C42.1752988,145.005535 39.6249268,152.372323 40.5249817,156.769051 C41.3761159,160.928 45.6807073,162.134182 45.6807073,162.134182 L46.8612988,162.622707 L61.710689,126.817697 L45.5729085,120.129657 L38.191939,134.595192 L38.9777012,134.919434 Z" id="脚_拷贝_2" fill="#1B1B1B"></path>
                    <path d="M22.3866463,3.48020202 L1.89621951,40.4438384 C1.04723324,41.7866954 0.467353708,43.2813564 0.188756098,44.8448889 C0.0310955548,46.4713737 0.175814623,48.1129495 0.615621951,49.6869091 L23.6672439,115.698343 L25.3747073,180.564121 L46.292,178.804566 C46.292,178.804566 49.04325,136.315838 50.5606585,109.974384 C51.3182805,96.8317576 51.4143902,86.213899 51.4143902,86.213899 C51.4143902,86.213899 65.184061,51.9955152 70.1973537,26.8040404 C72.3186951,16.151596 68.4898902,0.397737374 68.4898902,0.397737374 C61.1677839,4.54505355 52.9884102,6.95470673 44.5845366,7.44028283 C33.3072256,7.98068687 22.3866463,3.48020202 22.3866463,3.48020202 Z" id="形状_25" fill="#262626"></path>
                    <path d="M30.8096707,188.363232 L31.4110061,192.772929 C31.0719729,193.751647 30.5181824,194.642326 29.790128,195.379838 C28.7210748,196.364765 27.5376738,197.218203 26.2652378,197.921899 C26.2652378,197.921899 19.3734756,201.566384 17.0296098,205.396768 C14.8138902,209.019636 17.1387073,212.837051 17.1387073,212.837051 L17.6681768,214 L52.9586402,197.943515 L45.7227012,182.04699 L30.4568354,187.589374 L30.8096707,188.363232 Z" id="脚_拷贝" fill="#1B1B1B"></path>
                    <polygon id="形状_26" fill="#FFDEC4" points="33.3427256 186.525859 32.4907256 180.140444 43.9948902 178.860768 44.4208902 182.695475"></polygon>
                </g>
            </g>
        </g>
    </g>
</svg>