<?xml version="1.0" encoding="UTF-8"?>
<svg width="281px" height="359px" viewBox="0 0 281 359" version="1.1" xmlns="http://www.w3.org/2000/svg" xmlns:xlink="http://www.w3.org/1999/xlink">
    <!-- Generator: Sketch 64 (93537) - https://sketch.com -->
    <title>人物/女性/3</title>
    <desc>Created with Sketch.</desc>
    <g id="页面-1" stroke="none" stroke-width="1" fill="none" fill-rule="evenodd">
        <g id="人物/女性/3">
            <g>
                <g id="头" transform="translate(128.000000, 49.000000)">
                    <path d="M53.6853503,41.8608696 C53.6853503,41.8608696 52.6501911,45.8434783 50.9090446,48.6130435 C49.8824278,50.205528 48.5281962,51.5590249 46.9373248,52.5826087 L41.3803822,52.1869565 L42.9656051,44.2434783 L53.6853503,41.8608696 Z M5.24942675,47.0565217 C5.24942675,47.0565217 0.45044586,55.3173913 0.0519745223,60.5304348 C-0.411464968,66.5565217 3.51694268,69.6565217 3.51694268,69.6565217 L18.6675159,54.0086957 L5.24942675,47.0565217 Z" id="形状_35" fill="#502901"></path>
                    <path d="M51.2815287,7.93478261 C71.1401274,13.5826087 60.706242,30.8782609 60.706242,30.8782609 C60.706242,30.8782609 57.0593631,42.4913043 50.7704459,45.0782609 C48.6567292,46.0038749 46.3369592,46.1784865 44.1697338,45.6440373 C43.9946086,46.2420288 43.87329,46.8563652 43.8058599,47.4782609 C43.7505023,48.3461053 43.7984847,49.2174805 43.9487898,50.073913 L43.9487898,50.073913 L48.8820382,51.6478261 C48.8820382,51.6478261 43.2211465,58.2869565 38.1709554,57.4130435 C29.6817834,55.9434783 26.5763057,46.173913 26.5763057,46.173913 L26.5763057,46.173913 L32.146242,46.1 C32.146242,46.1 32.6963057,44.7826087 33.3849682,40.3086957 C33.7371873,37.8825106 33.9483304,35.4377909 34.0173248,32.9869565 L33.9964375,33.5697356 C32.9303211,32.919247 29.6529316,30.4916563 30.6,25.6869565 C30.9335032,24.0130435 33.9870064,24.873913 33.9870064,24.873913 C33.9870064,24.873913 32.7785987,2.67826087 51.2815287,7.93478261 Z" id="形状_24" fill="#FFDEC4"></path>
                    <path d="M59.2466242,14.0565217 C59.2466242,14.0565217 57.3365605,20.3478261 53.2912102,22.7956522 C48.8214013,25.5 42.1729936,24.3826087 42.1729936,24.3826087 C42.1729936,24.3826087 39.9727389,26.0608696 38.2012739,25.973913 C36.847021,25.8948373 35.5103068,25.6270542 34.2295541,25.1782609 C34.2295541,25.1782609 32.8305732,24.4521739 31.8473885,24.7826087 C31.0677707,25.0434783 30.6563057,26.3695652 30.6563057,26.3695652 C30.6563057,26.3695652 30.2664968,27.8130435 31.0547771,29.9434783 C31.6084505,31.2809109 32.5857218,32.3979294 33.835414,33.1217391 C34.0667423,35.2342172 34.0667423,37.3657828 33.835414,39.4782609 C33.5100876,41.7726127 32.9780552,44.0326018 32.2458599,46.2304348 L25.8919745,46.2304348 L13.5870064,46.626087 C13.5870064,46.626087 12.7164331,38.1913043 15.969172,30.3434783 C18.3296815,24.6391304 25.0993631,18.8217391 25.0993631,18.8217391 C25.0993631,18.8217391 30.023949,5.82608696 40.1892994,1.74347826 C54.482293,-3.99565217 62.0229299,7.30434783 62.0229299,7.30434783 C62.0229299,7.30434783 67.8787261,11.5086957 67.5842038,17.2347826 C67.2853503,23.026087 60.8318471,30.3434783 60.8318471,30.3434783 C59.5649253,28.0033265 58.7562986,25.4412151 58.4496815,22.7956522 C58.0598726,18.8 59.2466242,14.0565217 59.2466242,14.0565217 Z" id="形状_29" fill="#502901"></path>
                </g>
                <g id="上身" transform="translate(95.000000, 0.000000)">
                    <path d="M30.1905556,147.855556 L25.885,159.95 C25.885,159.95 35.6155556,166.267284 46.5473611,169.883951 C53.157519,171.98987 59.9202302,173.578982 66.7748611,174.637037 L72.8026389,160.814198 C66.9681224,160.207995 61.2034002,159.052076 55.5847222,157.361728 C43.7659722,153.766667 30.1905556,147.855556 30.1905556,147.855556 Z" id="裤子" fill="#FFDEC4"></path>
                    <path d="M59.0291667,93.432716 L10.8241667,13.5246914 L3.07416667,15.6851852 C3.07416667,15.6851852 13.5495833,57.4820988 25.885,80.4740741 C33.3809722,94.4395062 38.3711111,105.095062 38.3711111,105.095062 C38.3711111,105.095062 26.6384722,133.725926 23.3059722,143.970988 C22.5740278,146.217901 24.5976389,147.423457 24.5976389,147.423457 C24.5976389,147.423457 41.3720833,155.4 56.4458333,159.95 C63.314779,161.933571 70.3935958,163.093912 77.5344444,163.40679 C78.8353201,163.713406 80.1511068,162.958833 80.5483333,161.678395 C84.1994444,151.320988 92.5995833,120.646296 92.5995833,120.646296 C92.5995833,120.646296 104.207361,115.439506 116.271528,108.551852 C138.406389,95.912963 173.087639,72.2685185 173.087639,72.2685185 L170.07375,64.4950617 L82.2705556,99.05 C82.2705556,99.05 76.99625,106.516667 70.2193056,105.095062 C61.4359722,103.254321 59.0291667,93.432716 59.0291667,93.432716 Z" id="衣服" fill="#FF5CA6"></path>
                    <path d="M170.07375,64.4950617 L174.809861,58.445679 C175.0976,58.0305238 175.623133,57.854718 176.101528,58.0135802 C177.59125,58.5666667 176.962639,59.3098765 176.962639,59.3098765 L175.670972,61.9024691 C175.670972,61.9024691 179.890417,60.6148148 182.125,59.7419753 C182.602966,59.5514813 183.148182,59.7338714 183.416667,60.1740741 C183.962786,60.653341 184.402794,61.2421205 184.708333,61.9024691 C185.198578,62.993943 185.490212,64.164664 185.569444,65.3592593 C185.627837,66.0506475 185.295238,66.7165614 184.708333,67.0833333 C181.324167,69.1530864 173.087639,72.2685185 173.087639,72.2685185 L170.07375,64.4950617 Z M11.0394444,14.0302469 L12.9425,6.62839506 C13.0950121,6.15128396 12.9331579,5.62942065 12.5377778,5.32345679 C11.2590278,4.43765432 11.0480556,5.40555556 11.0480556,5.40555556 L9.80375,8.02407407 C9.80375,8.02407407 8.32694444,3.78518519 7.68111111,1.38703704 C7.562364,0.873502789 7.09009398,0.52214817 6.56597222,0.557407407 C5.85818012,0.388260951 5.12227778,0.374993765 4.40888889,0.518518519 C3.23110523,0.775582202 2.11126134,1.25032781 1.10652778,1.91851852 C0.502172523,2.30999811 0.17168571,3.0118683 0.254027778,3.72901235 C0.719027778,7.85123457 3.30236111,16.4283951 3.30236111,16.4283951 L11.0394444,14.0302469 Z" id="手" fill="#FFDEC4"></path>
                </g>
                <g id="下身" transform="translate(0.000000, 159.000000)">
                    <path d="M163.304028,184.993521 L164.330474,188.453564 C164.908239,189.06509 165.615672,189.538938 166.400616,189.840173 C167.519589,190.213477 168.679524,190.449894 169.855166,190.544276 C169.855166,190.544276 176.164787,190.946004 179.175118,192.99784 C182.025877,194.937365 181.581659,198.535637 181.581659,198.535637 L181.577346,199.572354 L150.132749,199.464363 L150.171564,185.295896 L163.304028,184.302376 L163.304028,184.993521 L163.304028,184.993521 Z" id="脚" fill="#1B1B1B"></path>
                    <polygon id="腿" fill="#FFDEC4" points="160.906114 184.453564 160.906114 176.682505 151.422275 175.386609 151.422275 185.317495"></polygon>
                    <path d="M23.5996209,19.6198704 L20.4038389,17.9481641 C19.5630239,17.9400104 18.7308457,18.1185125 17.967109,18.4708423 C16.9221196,19.0174905 15.9462332,19.6874853 15.0602844,20.4665227 C15.0602844,20.4665227 10.381763,24.7300216 6.81464929,25.4686825 C3.44204265,26.1641469 1.17006161,23.3434125 1.17006161,23.3434125 L0.428260664,22.6177106 L22.3834123,0.0734341253 L32.5227962,9.96112311 L24.0955924,20.0993521 L23.5996209,19.6198704 Z" id="脚-2" fill="#1B1B1B"></path>
                    <polygon id="腿-2" fill="#FFDEC4" points="25.6525118 18.2721382 31.2246445 23.6803456 38.7547867 17.7580994 31.6343602 10.8466523"></polygon>
                    <path d="M121.055877,0.937365011 L140.528124,9.91204707 C143.888203,10.9648901 147.954115,12.1747328 151.085877,12.9071274 C156.576066,14.1900648 161.958436,15.0583153 161.958436,15.0583153 L169.100427,93.6198704 L161.397773,177.114471 L151.426588,176.038877 C151.426588,176.038877 145.845829,147.352052 144.526114,120.980562 C143.70237,104.535637 145.819953,88.1641469 145.819953,88.1641469 C145.819953,88.1641469 137.020033,68.3893933 133.16376,48.6131331 L133.761374,48.012959 C113.659431,68.2764579 83.4741706,87.2267819 83.4741706,87.2267819 C83.4741706,87.2267819 79.4201422,88.6652268 77.5483886,86.6868251 C64.5453081,72.9200864 30.707109,23.6673866 30.707109,23.6673866 L38.7806635,17.2051836 C38.7806635,17.2051836 61.9360664,33.0064795 74.8572038,43.0583153 C81.4514692,48.1900648 86.1653555,55.987041 86.1653555,55.987041 C86.1653555,55.987041 99.0088626,30.2894168 109.212938,13.8660907 C114.038957,6.0950324 121.055877,0.937365011 121.055877,0.937365011 Z" id="腿-3" fill="#4A3499"></path>
                </g>
            </g>
        </g>
    </g>
</svg>