<?xml version="1.0" encoding="UTF-8"?>
<svg width="352px" height="691px" viewBox="0 0 352 691" version="1.1" xmlns="http://www.w3.org/2000/svg" xmlns:xlink="http://www.w3.org/1999/xlink">
    <!-- Generator: Sketch 60.1 (88133) - https://sketch.com -->
    <title>花卉5</title>
    <desc>Created with Sketch.</desc>
    <defs>
        <polygon id="path-1" points="0 0.487 171.847203 0.487 171.847203 163.7617 0 163.7617"></polygon>
    </defs>
    <g id="页面-1" stroke="none" stroke-width="1" fill="none" fill-rule="evenodd">
        <g id="画板" transform="translate(-1855.000000, -1738.000000)">
            <g id="花卉5" transform="translate(1855.000000, 1737.000000)">
                <path d="M155.571,476.7122 C153.841,476.7122 152.401,475.3492 152.323,473.6022 C152.161,469.9532 135.769,108.0842 108.739,55.0992 C107.923,53.4972 108.558,51.5382 110.158,50.7212 C111.76,49.9042 113.719,50.5402 114.536,52.1402 C142.203,106.3762 158.16,458.3562 158.826,473.3132 C158.905,475.1082 157.515,476.6292 155.719,476.7122 C155.67,476.7122 155.62,476.7122 155.571,476.7122" id="Fill-1" fill="#AED6AE"></path>
                <path d="M163.7077,476.7122 C162.0307,476.7122 160.6067,475.4252 160.4677,473.7252 C160.0637,468.8132 150.9247,353.0852 180.9367,323.0742 C182.2087,321.8032 184.2687,321.8032 185.5387,323.0742 C186.8107,324.3452 186.8107,326.4052 185.5387,327.6762 C157.6447,355.5702 166.8587,472.0182 166.9547,473.1912 C167.1017,474.9832 165.7687,476.5532 163.9777,476.7012 C163.8867,476.7092 163.7967,476.7122 163.7077,476.7122" id="Fill-3" fill="#8BBC8B"></path>
                <path d="M183.2409,476.7122 C183.1639,476.7122 183.0839,476.7092 183.0049,476.7042 C181.2119,476.5732 179.8629,475.0172 179.9919,473.2242 C180.0249,472.7702 183.4069,427.1922 195.7269,372.8632 C212.3259,299.6652 236.3499,246.2472 267.1339,214.0972 C268.3779,212.8002 270.4369,212.7562 271.7339,213.9972 C273.0319,215.2402 273.0789,217.2992 271.8339,218.5982 C200.2649,293.3482 186.6129,471.8972 186.4849,473.6912 C186.3609,475.4042 184.9319,476.7122 183.2409,476.7122" id="Fill-5" fill="#8BBC8B"></path>
                <path d="M132.7893,476.7122 C131.1253,476.7122 129.7063,475.4422 129.5503,473.7532 C129.4883,473.0612 122.6843,404.3362 78.3283,393.6302 C76.5813,393.2072 75.5073,391.4502 75.9283,389.7022 C76.3513,387.9552 78.1053,386.8812 79.8563,387.3022 C128.7513,399.1052 135.7593,470.1442 136.0343,473.1632 C136.1963,474.9532 134.8773,476.5342 133.0883,476.6972 C132.9883,476.7072 132.8883,476.7122 132.7893,476.7122" id="Fill-7" fill="#8BBC8B"></path>
                <g id="编组" transform="translate(0.000000, 0.513000)">
                    <mask id="mask-2" fill="white">
                        <use xlink:href="#path-1"></use>
                    </mask>
                    <g id="Clip-10"></g>
                    <path d="M45.6472,163.7617 C43.4202,163.7617 41.2882,163.7217 39.2642,163.6427 C23.3962,163.0187 13.2932,160.3557 9.2362,155.7237 C-3.5938,141.0827 -7.6918,76.5827 28.0982,39.0347 C53.4542,12.4357 76.8502,-0.5213 97.5992,0.5477 C112.8452,1.3277 126.3502,9.5897 137.7352,25.1037 C138.6792,26.3877 138.5432,28.0307 137.4002,29.1967 C132.9912,33.6877 126.2962,42.6417 127.0912,47.5557 C127.2602,48.6137 127.7702,49.3407 128.7382,49.9137 C134.9622,53.5947 154.0302,48.3957 165.5792,43.5317 C166.8622,42.9907 168.3922,43.0327 169.6362,43.6387 C170.8772,44.2487 171.6642,45.3417 171.7242,46.5427 C171.8532,49.1337 174.5432,110.2757 146.2052,136.9577 C126.1552,155.8347 76.8672,163.7617 45.6472,163.7617" id="Fill-9" fill="#A7D6AD" mask="url(#mask-2)"></path>
                </g>
                <path d="M203.032,212.5418 C204.191,199.3978 229.644,226.5958 233.959,207.8128 C238.273,189.0308 239.942,178.7238 220.27,182.1558 C200.598,185.5878 214.807,145.0468 257.18,148.3378 C299.553,151.6288 362.15,224.1768 350.396,246.9278 C338.642,269.6798 288.33,291.8128 265.534,280.4318 C242.737,269.0508 199.982,247.1288 203.032,212.5418" id="Fill-11" fill="#A5CDA8"></path>
                <path d="M159.3459,357.0853 C147.7629,344.9663 125.7029,285.8193 147.4159,263.8183 C169.1289,241.8163 184.3499,288.2613 198.6689,275.8233 C212.9869,263.3853 202.3399,247.5123 202.8089,240.8233 C203.2799,234.1343 236.9599,233.1403 257.7859,271.5763 C278.6109,310.0113 265.4299,377.9863 250.8769,393.7693 C216.9619,398.1063 193.7849,393.1163 159.3459,357.0853" id="Fill-13" fill="#8AA88C"></path>
                <path d="M53.4094,344.0535 C48.9874,366.8715 76.6514,363.6165 86.4144,345.7165 C96.1784,327.8165 114.0784,357.1075 105.9424,386.3985 C97.8054,415.6895 75.0244,448.2345 47.3604,459.6265 C19.6964,471.0165 -7.9666,384.7705 20.2984,340.2445 C48.9874,301.7795 53.4094,344.0535 53.4094,344.0535" id="Fill-15" fill="#A5CDA8"></path>
                <path d="M343.5251,240.7567 C343.3041,240.7567 343.0831,240.6677 342.9221,240.4897 C327.0031,222.9777 273.8951,209.9447 273.3601,209.8167 C272.9241,209.7097 272.6561,209.2697 272.7601,208.8327 C272.8671,208.3977 273.3041,208.1377 273.7441,208.2337 C275.9471,208.7677 327.8741,221.5167 344.1281,239.3967 C344.4291,239.7287 344.4051,240.2437 344.0721,240.5457 C343.9161,240.6867 343.7201,240.7567 343.5251,240.7567" id="Fill-17" fill="#85B58C"></path>
                <path d="M314.2341,198.4476 C314.1121,198.4476 313.9881,198.4206 313.8701,198.3616 C301.2681,192.0596 274.0121,198.3616 273.7381,198.4256 C273.2961,198.5426 272.8621,198.2556 272.7601,197.8206 C272.6571,197.3836 272.9271,196.9446 273.3661,196.8426 C274.5071,196.5736 301.4661,190.3396 314.5981,196.9056 C315.0001,197.1076 315.1621,197.5956 314.9621,197.9976 C314.8191,198.2826 314.5311,198.4476 314.2341,198.4476" id="Fill-19" fill="#85B58C"></path>
                <path d="M260.5339,188.6839 C260.4759,188.6839 260.4159,188.6779 260.3569,188.6649 C259.9189,188.5659 259.6419,188.1329 259.7389,187.6939 C260.0129,186.4659 266.6289,157.6839 285.0899,161.0329 C285.5309,161.1139 285.8229,161.5369 285.7439,161.9799 C285.6629,162.4219 285.2259,162.6999 284.7969,162.6349 C267.8959,159.5499 261.3919,187.7609 261.3289,188.0469 C261.2439,188.4269 260.9069,188.6839 260.5339,188.6839" id="Fill-21" fill="#85B58C"></path>
                <path d="M312.6071,260.284 C312.3161,260.284 312.0351,260.128 311.8881,259.853 C299.1401,235.95 267.0021,219.679 266.6791,219.516 C266.2771,219.315 266.1151,218.827 266.3151,218.425 C266.5181,218.024 267.0041,217.861 267.4071,218.061 C267.7341,218.224 300.3361,234.731 313.3251,259.088 C313.5371,259.485 313.3851,259.977 312.9901,260.189 C312.8671,260.254 312.7371,260.284 312.6071,260.284" id="Fill-23" fill="#85B58C"></path>
                <path d="M270.2976,273.3026 C270.1126,273.3026 269.9286,273.2406 269.7766,273.1136 C259.8346,264.8286 259.7206,226.1276 259.7206,224.4846 C259.7206,224.0346 260.0836,223.6706 260.5336,223.6706 C260.9836,223.6706 261.3476,224.0346 261.3476,224.4846 C261.3476,224.8786 261.4566,264.0636 270.8186,271.8646 C271.1636,272.1516 271.2096,272.6656 270.9216,273.0106 C270.7616,273.2026 270.5286,273.3026 270.2976,273.3026" id="Fill-25" fill="#85B58C"></path>
                <path d="M223.1081,245.6385 C223.0881,245.6385 223.0711,245.6385 223.0521,245.6375 C222.6041,245.6065 222.2641,245.2195 222.2951,244.7705 C223.9501,219.9455 245.6071,217.9935 245.8261,217.9785 C246.2251,217.9165 246.6641,218.2765 246.6991,218.7245 C246.7341,219.1735 246.3981,219.5645 245.9521,219.5985 C245.1161,219.6655 225.4771,221.4855 223.9191,244.8795 C223.8891,245.3095 223.5321,245.6385 223.1081,245.6385" id="Fill-27" fill="#85B58C"></path>
                <path d="M245.8884,185.4295 C245.6434,185.4295 245.4024,185.3195 245.2424,185.1105 C244.6494,184.3315 230.7864,165.8795 237.1944,149.7535 C237.3614,149.3355 237.8354,149.1355 238.2504,149.2975 C238.6684,149.4645 238.8714,149.9355 238.7064,150.3535 C232.6394,165.6185 246.3954,183.9385 246.5344,184.1225 C246.8084,184.4795 246.7384,184.9905 246.3804,185.2625 C246.2354,185.3755 246.0614,185.4295 245.8884,185.4295" id="Fill-29" fill="#85B58C"></path>
                <path d="M260.5339,205.7703 C260.5339,208.4663 258.3479,210.6523 255.6519,210.6523 C252.9559,210.6523 250.7699,208.4663 250.7699,205.7703 C250.7699,203.0743 252.9559,200.8883 255.6519,200.8883 C258.3479,200.8883 260.5339,203.0743 260.5339,205.7703" id="Fill-31" fill="#85B58C"></path>
                <path d="M245.8884,386.3987 C245.2064,386.3987 244.5734,385.9677 244.3454,385.2857 C236.3864,361.4127 213.4394,330.6927 213.2094,330.3857 C212.6704,329.6677 212.8154,328.6477 213.5334,328.1067 C214.2514,327.5697 215.2734,327.7127 215.8124,328.4317 C216.7674,329.7037 239.3064,359.8777 247.4314,384.2557 C247.7154,385.1097 247.2544,386.0317 246.4034,386.3137 C246.2314,386.3717 246.0584,386.3987 245.8884,386.3987" id="Fill-33" fill="#628462"></path>
                <path d="M258.0925,318.866 C257.4105,318.866 256.7775,318.435 256.5495,317.754 C254.1065,310.423 227.6675,301.677 217.6865,298.926 C216.8205,298.687 216.3115,297.791 216.5495,296.925 C216.7875,296.059 217.6815,295.549 218.5505,295.789 C222.3945,296.847 256.2065,306.434 259.6355,316.724 C259.9205,317.577 259.4595,318.499 258.6085,318.782 C258.4365,318.839 258.2635,318.866 258.0925,318.866" id="Fill-35" fill="#628462"></path>
                <path d="M179.9831,364.43 C179.3191,364.43 178.6951,364.02 178.4551,363.359 C171.7821,345.013 187.6151,312.983 188.2921,311.629 C188.6921,310.824 189.6701,310.503 190.4751,310.902 C191.2791,311.304 191.6051,312.281 191.2031,313.085 C191.0441,313.404 175.3191,345.214 181.5121,362.246 C181.8211,363.092 181.3831,364.025 180.5401,364.331 C180.3551,364.398 180.1681,364.43 179.9831,364.43" id="Fill-37" fill="#628462"></path>
                <path d="M207.6472,300.9661 C207.6472,302.7631 206.1902,304.2201 204.3922,304.2201 C202.5952,304.2201 201.1382,302.7631 201.1382,300.9661 C201.1382,299.1691 202.5952,297.7121 204.3922,297.7121 C206.1902,297.7121 207.6472,299.1691 207.6472,300.9661" id="Fill-39" fill="#628462"></path>
                <path d="M111.6379,60.9427 C111.6379,63.1897 109.4519,65.0107 106.7559,65.0107 C104.0599,65.0107 101.8739,63.1897 101.8739,60.9427 C101.8739,58.6957 104.0599,56.8747 106.7559,56.8747 C109.4519,56.8747 111.6379,58.6957 111.6379,60.9427" id="Fill-41" fill="#85B58C"></path>
                <path d="M136.862,128.4744 C136.808,128.4744 136.754,128.4704 136.702,128.4584 C136.26,128.3714 135.974,127.9424 136.063,127.5024 C139.227,111.6824 120.364,72.2694 120.173,71.8724 C119.978,71.4674 120.148,70.9814 120.553,70.7874 C120.953,70.5914 121.445,70.7624 121.638,71.1674 C122.428,72.8044 140.929,111.4694 137.658,127.8204 C137.58,128.2074 137.242,128.4744 136.862,128.4744" id="Fill-43" fill="#85B58C"></path>
                <path d="M101.0603,146.3748 C100.8983,146.3748 100.7363,146.3268 100.5933,146.2268 C100.2263,145.9698 100.1353,145.4628 100.3943,145.0938 C111.4693,129.2718 103.5923,77.8588 103.5113,77.3408 C103.4413,76.8978 103.7463,76.4808 104.1893,76.4118 C104.6333,76.3508 105.0493,76.6448 105.1193,77.0898 C105.4533,79.2288 113.1743,129.6748 101.7263,146.0278 C101.5693,146.2538 101.3163,146.3748 101.0603,146.3748" id="Fill-45" fill="#85B58C"></path>
                <path d="M22.9509,146.3748 C22.8729,146.3748 22.7959,146.3638 22.7179,146.3398 C22.2869,146.2108 22.0419,145.7578 22.1729,145.3278 C27.0609,129.0328 77.2169,81.8758 79.3499,79.8758 C79.6769,79.5708 80.1919,79.5818 80.4999,79.9138 C80.8069,80.2408 80.7889,80.7558 80.4619,81.0638 C79.9439,81.5508 28.4939,129.9158 23.7299,145.7948 C23.6249,146.1468 23.3009,146.3748 22.9509,146.3748" id="Fill-47" fill="#85B58C"></path>
                <path d="M92.924,50.3651 C92.563,50.3651 92.235,50.1241 92.137,49.7601 C91.81,48.5271 83.774,19.6501 50.767,25.9421 C50.316,26.0211 49.9,25.7351 49.816,25.2951 C49.731,24.8531 50.021,24.4281 50.462,24.3431 C84.985,17.7821 93.628,49.0271 93.711,49.3451 C93.825,49.7791 93.566,50.2241 93.132,50.3381 C93.062,50.3561 92.992,50.3651 92.924,50.3651" id="Fill-49" fill="#85B58C"></path>
                <path d="M8.3054,102.4383 C8.2394,102.4383 8.1704,102.4303 8.1024,102.4133 C7.6664,102.3003 7.4044,101.8553 7.5174,101.4213 C18.9484,57.3303 79.3644,61.7073 79.9714,61.7593 C80.4194,61.7953 80.7524,62.1873 80.7164,62.6353 C80.6814,63.0813 80.3174,63.4093 79.8404,63.3803 C79.2434,63.3333 20.1784,59.0693 9.0944,101.8283 C8.9984,102.1953 8.6684,102.4383 8.3054,102.4383" id="Fill-51" fill="#85B58C"></path>
                <polygon id="Fill-53" fill="#FFCFC2" points="232.8698 691.513 92.9238 691.513 57.1238 460.44 268.6708 460.44"></polygon>
                <polygon id="Fill-55" fill="#EF9884" points="260.0984 515.7669 263.6274 492.9849 62.1664 492.9849 65.6964 515.7669"></polygon>
            </g>
        </g>
    </g>
</svg>