<?xml version="1.0" encoding="UTF-8"?>
<svg width="149px" height="360px" viewBox="0 0 149 360" version="1.1" xmlns="http://www.w3.org/2000/svg" xmlns:xlink="http://www.w3.org/1999/xlink">
    <!-- Generator: Sketch 64 (93537) - https://sketch.com -->
    <title>人物/男性/2</title>
    <desc>Created with Sketch.</desc>
    <defs>
        <linearGradient x1="50.0061702%" y1="99.9989192%" x2="50.0061702%" y2="0.00648487403%" id="linearGradient-1">
            <stop stop-color="#FF512F" offset="0%"></stop>
            <stop stop-color="#FF512F" offset="55.1%"></stop>
            <stop stop-color="#FF7944" offset="100%"></stop>
        </linearGradient>
    </defs>
    <g id="页面-1" stroke="none" stroke-width="1" fill="none" fill-rule="evenodd">
        <g id="人物/男性/2">
            <g>
                <path d="M48.0274613,335.878491 L46.7266041,340.146425 C45.9993831,340.899116 45.1104937,341.482381 44.1248896,341.853598 C42.7180477,342.307818 41.260953,342.594391 39.7847963,342.707185 C39.7847963,342.707185 31.8569386,343.17367 28.0675415,345.694739 C24.4849807,348.078807 25.0296062,352.523433 25.0296062,352.523433 L25.0296062,353.803813 L64.5214638,353.803813 L64.5214638,336.305284 L48.0304967,335.024904 L48.0304967,335.878491 L48.0274613,335.878491 Z M124.942814,332.190996 L126.440967,336.397472 C126.302844,337.427404 125.932456,338.413897 125.35692,339.284729 C124.490527,340.466117 123.483097,341.540798 122.356276,342.485679 C122.356276,342.485679 116.221867,347.448006 114.66344,351.679663 C113.189135,355.680851 116.287777,358.962892 116.287777,358.962892 L117.053114,360 L149,337.159725 L138.540241,323 L124.434178,331.500871 L124.942814,332.190996 Z" id="脚" fill="#1B1B1B"></path>
                <path d="M106.900454,173 C106.729699,173.810512 106.554704,174.620039 106.375476,175.428548 L114.674154,175.156004 C114.674154,175.156004 114.318528,183.16778 112.947816,191.988111 C109.770922,212.430673 103.013173,245.073622 103.013173,245.073622 C107.140287,250.397494 110.620219,256.192615 113.379832,262.337188 C122.958849,283.904997 138,322.759672 138,322.759672 L138,322.759672 L122.450443,332.254374 C122.450443,332.254374 87.1636643,274.732595 75.8013398,255.431675 C75.5538048,254.996117 75.316001,254.555463 75.088062,254.110047 L64.1412219,337 L46,335.705621 C46,335.705621 48.3780305,252.782944 48.5895069,249.819247 C48.8087518,246.744665 49.4526758,242.915892 49.4526758,242.915892 L49.4526758,242.915892 L60.2509195,176.019355 Z" id="腿" fill="#2E3758"></path>
                <g id="头" transform="translate(37.000000, 0.000000)">
                    <path d="M4.85394059,23.9756912 C4.85394059,23.9756912 10.9965149,43.0344265 18.3702178,50.8809926 C25.0529901,57.9926618 30.1421782,51.3148162 30.1421782,51.3148162 L34.0660198,58.6898162 C34.0660198,58.6898162 37.7254257,59.6945515 40.1702574,57.8221691 C44.7571485,54.3081985 43.6580198,50.8809926 43.6580198,50.8809926 C42.4390199,47.9143185 41.4202534,44.8699178 40.6085149,41.7680956 C39.8480368,38.620832 39.2662565,35.4333945 38.8659406,32.2209412 C38.8659406,32.2209412 40.4490693,-3.79986029 9.21778218,10.9570809 C1.43457426,14.6328676 4.85394059,23.9756912 4.85394059,23.9756912 Z" id="微博_杨锦Vincent" fill="#FFDEC4"></path>
                    <path d="M16.1898218,20.9380588 C16.1898218,20.9380588 11.9405545,23.9188603 8.77821782,25.7101176 C3.75176238,28.5599044 1.36617822,23.9748235 1.36617822,23.9748235 C0.103580001,20.6394904 -0.049143875,16.988366 0.930534653,13.5600221 C2.19533743,9.23985034 5.19176097,5.62950569 9.21429703,3.57904412 C9.21429703,3.57904412 16.1680396,-0.833808824 17.0624158,4.01286765 C17.9567921,8.85954412 24.9105347,3.57904412 24.9105347,3.57904412 C24.9105347,3.57904412 34.0320396,-4.30656618 38.4263762,4.88051471 C44.5306139,17.6418676 39.2976634,34.8234485 39.2976634,34.8234485 L36.2455446,37.8602132 L35.3742574,30.4830441 C35.3742574,30.4830441 39.6100198,26.1118382 37.5524752,21.8039706 C35.5977426,17.7065074 31.8843168,22.6716176 31.8843168,22.6716176 L32.755604,28.7451471 L30.5773861,31.7819118 L27.9635248,23.1024044 C27.9635248,23.1024044 26.4265743,19.536375 24.0392475,19.1979926 C20.5392871,18.7047353 16.1898218,20.9380588 16.1898218,20.9380588 Z" id="站酷_杨锦Vincent" fill="#5A2F02"></path>
                </g>
                <g id="衣服" transform="translate(51.000000, 47.000000)">
                    <polygon id="袖子" fill="#FF512F" points="14.8443553 15.7192611 0.0694736842 72.9085605 12.2369211 76.3735287"></polygon>
                    <path d="M15.279,11.8198726 C15.279,11.8198726 19.6419474,7.84642038 24.8394474,4.02369427 C26.7632841,2.56919316 28.7974519,1.26591214 30.9236053,0.125605096 C30.9236053,0.125605096 47.2134474,11.3534013 52.6519342,31.752535 C62.9427237,70.3527134 65.6886711,130.534013 65.6886711,130.534013 C65.6886711,130.534013 49.6359079,135.953223 34.8345395,135.731465 C20.5281711,135.518803 7.45669737,129.667771 7.45669737,129.667771 C7.45669737,129.667771 9.12232895,72.9523057 11.3680658,39.1186242 C12.1887237,26.7486879 15.279,11.8198726 15.279,11.8198726 Z" id="衣服-2" fill="#FF7944"></path>
                    <path d="M27.4468816,25.6840764 L36.5726842,75.9412739 C36.5726842,75.9412739 37.0299079,80.2893758 36.5726842,83.7374522 C35.6716974,90.5409172 33.9674211,99.7676943 33.9674211,99.7676943 L54.8268947,105.831389 C54.8268947,105.831389 56.694,100.206879 58.3031842,94.1336561 C59.240727,90.4229555 59.9655855,86.661992 60.4742368,82.8690446 C60.4742368,82.8690446 60.3778421,78.6751338 60.4742368,75.0728662 C60.5706316,71.4705987 57.7899474,56.2017834 55.2598026,43.8786242 C53.4864868,35.2452229 51.3484342,27.8483822 51.3484342,27.8483822" id="袖子-2" fill="url(#linearGradient-1)"></path>
                </g>
                <path d="M87.4747798,147.244318 L79.2693302,185.089811 C79.2693302,185.089811 78.0011446,186.912307 77.1118182,188.099358 C75.7978934,189.850915 74.5206463,191.538842 74.5206463,191.538842 L84.8853339,201 L89.2038099,190.248606 L100,151.112876 L87.4747798,147.244318 Z M54.2214788,121.010519 L52.0639668,127.45955 L18.3791634,97.7866992 C17.9186933,96.7223115 17.3397299,95.7128049 16.6531538,94.7771514 C15.8918711,93.8215731 15.0232006,92.9560571 14.0641394,92.197539 L11.0410336,90.9077328 C11.0410336,90.9077328 9.74652641,91.1317292 9.74652641,91.7676036 C9.74652641,92.6076974 11.0410336,93.9172806 11.0410336,93.9172806 C11.0410336,93.9172806 11.3711329,94.3154008 12.3355408,95.6370222 C13.0634854,96.6340424 12.3355408,96.496893 12.3355408,96.496893 L11.472536,96.496893 C11.472536,96.496893 11.201121,96.2428012 9.74652641,94.347216 C8.92301332,93.2690726 8.20079898,92.117726 7.5890144,90.9077328 C7.5890144,90.9077328 6.96463043,89.7542162 5.8630048,90.047862 C5.34779093,90.1850114 5,91.3376682 5,91.3376682 C5.34147382,94.1459695 6.06739079,96.8944365 7.157512,99.5064408 C7.98549078,101.460094 8.99682101,103.331458 10.1780288,105.095601 C10.1780288,105.095601 10.6203188,106.50149 12.7696322,107.245278 C15.5131245,108.195435 20.543148,111.114696 20.543148,111.114696 L48.1817397,142.079074 C48.1817397,142.079074 50.9433551,145.42999 52.9321497,145.518557 C56.2223555,145.666885 60.2737315,141.649138 60.2737315,141.649138 L61.1367363,122.726392 L54.2214788,121.010519 Z" id="胳膊" fill="#FFDEC4"></path>
                <path d="M0.71536376,78.1649674 C1.54054781,77.7759341 2.53760635,78.0981885 2.9509606,78.8875236 L15.655898,99.5616952 C16.0386313,100.019324 16.1082001,100.649738 15.833869,101.174423 C15.5595379,101.699107 14.9918505,102.021393 14.3816096,101.998894 C13.7713687,101.976395 13.231007,101.613258 12.9992549,101.069915 L0.294317547,80.3957433 C-0.226199515,79.6671363 -0.0382189208,78.6711826 0.71536376,78.1649674 L0.71536376,78.1649674 Z" id="手机" fill="#535353"></path>
            </g>
        </g>
    </g>
</svg>