<?xml version="1.0" encoding="UTF-8"?>
<svg width="208px" height="294px" viewBox="0 0 208 294" version="1.1" xmlns="http://www.w3.org/2000/svg" xmlns:xlink="http://www.w3.org/1999/xlink">
    <!-- Generator: Sketch 64 (93537) - https://sketch.com -->
    <title>人物/男性/9</title>
    <desc>Created with Sketch.</desc>
    <g id="页面-1" stroke="none" stroke-width="1" fill="none" fill-rule="evenodd">
        <g id="人物/男性/9">
            <g>
                <g id="脚_" transform="translate(71.000000, 259.000000)">
                    <path d="M20.645122,11.1795833 L19.4341463,14.79625 C19.5659055,15.6717864 19.8934942,16.5066045 20.3926829,17.2389583 C21.1433913,18.2314715 22.0119037,19.1297764 22.9792683,19.9142708 C22.9792683,19.9142708 28.247561,24.0340625 29.6268293,27.6175521 C30.9329268,31.0034375 28.3536585,33.8610417 28.3536585,33.8610417 L27.7170732,34.7590104 L0.329268293,15.8601042 L8.99634146,3.58604167 L21.0658537,10.5798437 L20.645122,11.1795833 Z M60.1939024,12.376875 L60.1353659,16.1889583 C60.5243665,16.9854984 61.0898036,17.6836075 61.7890244,18.230625 C62.8046625,18.9514664 63.9041214,19.5471525 65.0634146,20.0046875 C65.0634146,20.0046875 71.3341463,22.351875 73.7341463,25.3527604 C75.9987805,28.1895833 74.4073171,31.6888542 74.4073171,31.6888542 L74.0743902,32.7355729 L42.2414634,22.9425 L46.7926829,8.63661458 L60.4170732,11.6794271 L60.1939024,12.376875 Z" id="脚_2" fill="#1B1B1B"></path>
                    <path d="M19.8621951,9.75005208 L21.5012195,5.78229167 L12.0621951,0.175 L9.59634146,4.003125 L19.8621951,9.75005208 Z M59.0158537,11.2488542 L59.3780488,6.97338542 L48.6841463,4.46213542 L47.4914634,8.85171875 L59.0158537,11.2488542 Z" id="脚_3" fill="#FFDEC4"></path>
                </g>
                <g id="头" transform="translate(88.000000, 19.000000)">
                    <path d="M32.7759223,14.6536027 C32.7759223,14.6536027 35.443301,31.4823699 32.8902913,40.2573699 C30.5733981,48.2094247 24.1798058,45.0726164 24.1798058,45.0726164 L24.0469903,52.1739863 C24.0469903,52.1739863 21.6747573,54.3317671 19.1143689,53.8383699 C14.3108738,52.9137123 13.8238835,49.8886027 13.8238835,49.8886027 C13.6086968,47.1682224 13.2118197,44.4653665 12.6359223,41.7982192 C12.0049832,39.1155325 11.2240742,36.4705356 10.2968932,33.8757534 C10.2968932,33.8757534 -4.68912621,7.09508219 24.504466,6.41416438 C31.7761165,6.24846575 32.7759223,14.6536027 32.7759223,14.6536027 Z" id="微博_杨锦Vincent" fill="#FFDEC4"></path>
                    <path d="M23.0656311,16.6634384 C23.0656311,16.6634384 29.7691262,17.3262329 32.8423301,17.4845342 C37.7196117,17.7353014 37.7638835,13.3420685 37.7638835,13.3420685 C37.4368668,10.3246722 36.1542547,7.49165729 34.1040777,5.25834247 C29.7396117,0.542958904 23.5784466,0.247068493 23.5784466,0.247068493 C23.5784466,0.247068493 16.6499029,-0.458260274 17.8304854,3.56732877 C19.011068,7.59291781 9.84679612,6.79142466 9.84679612,6.79142466 C9.84679612,6.79142466 -0.047961165,4.27228767 0.154951456,12.9311507 C0.439029126,24.9583562 10.9646602,36.0265068 10.9646602,36.0265068 L14.428932,37.1730822 L12.2596117,31.2327123 C12.2596117,31.2327123 7.39339806,29.5235753 7.29378641,25.4654384 C7.19786408,21.6059178 11.8980583,23.9656438 11.8980583,23.9656438 L13.5693204,28.9162603 L16.3732039,30.3957123 L15.0229126,22.8009452 C15.0229126,22.8009452 14.8163107,19.5043562 16.4875728,18.3366986 C18.9335922,16.6227534 23.0656311,16.6634384 23.0656311,16.6634384 Z" id="站酷_杨锦Vincent" fill="#5A2F02"></path>
                </g>
                <path d="M51.2180789,145.483221 C51.2180789,145.483221 43.5171898,164.87968 46.8259368,175.889262 C49.0000472,183.122933 61.8324223,183.676175 61.8324223,183.676175 C61.8324223,183.676175 69.5296513,184.232383 77.9369433,184.417786 C92.829965,184.745578 112.342056,184.788591 112.342056,184.788591 L81.2310498,257.095639 C83.1237692,258.929456 85.2104661,260.546064 87.4532511,261.916108 C90.1357276,263.422243 92.9547539,264.663959 95.8715234,265.624162 L126.250506,216.307048 L117.10021,262.657719 C122.420836,264.948871 128.156134,266.085691 133.936755,265.994968 C133.936755,265.994968 138.636347,245.799053 142.721039,226.318793 C146.066387,210.374162 149.309252,195.912752 149.309252,195.912752 C149.309252,195.912752 151.08441,188.533725 148.94324,183.676175 C147.314488,179.981841 141.623003,178.4849 141.623003,178.4849 C141.623003,178.4849 142.73934,171.612764 139.792944,168.102349 C136.531779,164.215938 106.851879,156.978188 106.851879,156.978188 L51.9501026,144 L51.2180789,145.483221 Z" id="形状_27" fill="#262626"></path>
                <path d="M101.684105,69.1099744 C101.684105,69.1099744 104.12165,72.0474297 106.470825,72.0767263 C111.298048,72.1371739 111.625755,70.2225064 111.625755,70.2225064 L111.625755,68.3682864 C118.347126,65.1969 124.864889,61.6050575 131.140845,57.6138107 C152.960926,43.8792327 185.267606,22.0127877 185.267606,22.0127877 L193,33.5089514 L135.559356,81.3478261 C135.559356,81.3478261 131.785211,84.7911125 129.668008,88.3938619 C127.678938,91.9176899 126.074036,95.6478113 124.881288,99.5191816 L106.102616,157 L44.61167,151.808184 L74.4366197,79.1227621 C74.4366197,79.1227621 57.5505433,68.5029028 42.0342052,55.0179028 C25.3727364,40.5394118 10,23.1253197 10,23.1253197 L21.0462777,12 C30.9774792,21.2486064 41.4272374,29.9158679 52.3440644,37.9590793 C74.1567807,53.9272506 101.684105,69.1099744 101.684105,69.1099744 Z" id="上衣" fill="#FF6E47"></path>
                <path d="M185.836949,22.1303985 L196.548909,13.1348662 C196.908064,13.0101563 197.297888,13.0101563 197.657043,13.1348662 C198.058253,13.3477935 198.221486,13.8446968 198.02642,14.2593077 L197.287665,17.2578185 L204.305845,13.5096801 C204.305845,13.5096801 205.362266,12.9736963 205.783357,13.5096801 C206.703108,14.6779748 207.766917,17.3076687 207.999818,18.7570739 C208.005552,19.1635198 207.875319,19.5599673 207.630247,19.8815154 L193.224507,33 L185.836949,22.1303985 Z M21.0352887,12.7042051 L12.3770699,1.70304394 C12.0515792,1.50624153 11.6709168,1.42463824 11.2947925,1.47103417 C10.8602158,1.5937393 10.6001947,2.04443745 10.7074816,2.48902857 L10.8219888,5.5625021 L4.7161715,0.44479386 C4.7161715,0.44479386 3.79272666,-0.297712367 3.27190377,0.135947252 C2.13421973,1.08122777 0.564363503,3.42081579 0.0435406136,4.78363893 C-0.0447844523,5.17841975 0.00211914494,5.59195741 0.176516671,5.95605664 L11.6124576,21.7439654 L21.0352887,12.7042051 Z" id="手" fill="#FFDEC4"></path>
            </g>
        </g>
    </g>
</svg>