<?xml version="1.0" encoding="UTF-8"?>
<svg width="118px" height="360px" viewBox="0 0 118 360" version="1.1" xmlns="http://www.w3.org/2000/svg" xmlns:xlink="http://www.w3.org/1999/xlink">
    <!-- Generator: Sketch 64 (93537) - https://sketch.com -->
    <title>人物/男性/4</title>
    <desc>Created with Sketch.</desc>
    <defs>
        <linearGradient x1="50%" y1="100%" x2="50%" y2="-0.00297130147%" id="linearGradient-1">
            <stop stop-color="#326EF5" offset="0%"></stop>
            <stop stop-color="#6997FF" offset="100%"></stop>
        </linearGradient>
        <linearGradient x1="50.0036579%" y1="99.9961634%" x2="50.0036579%" y2="0.00383664422%" id="linearGradient-2">
            <stop stop-color="#2D6AF4" offset="0%"></stop>
            <stop stop-color="#6997FF" offset="91.8%"></stop>
            <stop stop-color="#6997FF" offset="100%"></stop>
        </linearGradient>
    </defs>
    <g id="页面-1" stroke="none" stroke-width="1" fill="none" fill-rule="evenodd">
        <g id="人物/男性/4">
            <g>
                <path d="M84.0309537,169.518485 C95.4357189,168.137717 107.454521,169.951743 107.454521,169.951743 C107.454521,169.951743 105.320421,197.311685 107.02083,227.148609 C109.811906,276.041585 117,337.209765 117,337.209765 L117,337.209765 L101.816548,337.209765 C101.816548,337.209765 86.2928528,299.366386 76.5848985,260.514898 C71.850414,299.725344 69.2468398,338 69.2468398,338 L69.2468398,338 L53.2732983,336.41696 C53.2732983,336.41696 47.6396191,280.749994 46.2483751,236.004892 C45.1233569,199.753955 48.1849524,172.623284 48.1849524,172.623284 C56.0006001,171.569856 63.9161897,171.476883 71.7545141,172.346445 C71.7751156,172.348873 71.7957238,172.351313 71.8163385,172.353766 C75.2744927,171.219969 79.6105598,170.053082 84.0309537,169.518485 Z" id="腿" fill="#262626"></path>
                <g id="脚" transform="translate(30.000000, 336.000000)">
                    <path d="M23.1704854,4.16614286 L21.8761165,8.49942857 C21.1530186,9.26381735 20.2684569,9.85602554 19.2873786,10.2325714 C17.8890053,10.6939371 16.4404308,10.9850243 14.9728155,11.0995714 C14.9728155,11.0995714 7.08699029,11.5731429 3.3192233,14.133 C-0.243495146,16.5514286 0.299029126,21.0642857 0.299029126,21.0642857 L0.299029126,22.3671429 L39.5700971,22.3671429 L39.5700971,4.59942857 L23.1704854,3.29914286 L23.1704854,4.16614286 L23.1704854,4.16614286 Z M70.7887379,4.47514286 L69.6652427,8.85685714 C68.9738937,9.64976437 68.1140871,10.2770153 67.1491262,10.6924286 C65.7689733,11.2094374 64.3318629,11.5580825 62.8687379,11.7308571 C62.8687379,11.7308571 55.0128155,12.5198571 51.3475728,15.228 C47.8831068,17.79 48.6050485,22.2771429 48.6050485,22.2771429 L48.6563107,23.5757143 L87.8974757,22.0028571 L87.1926214,4.25185714 L70.7545631,3.609 L70.7887379,4.47514286 Z" id="脚-2" fill="#1B1B1B"></path>
                    <path d="M24.4648544,3.40000879 L24.8963107,0.600285714 L38.2757282,1.80016703 L38.2757282,4.60028571 L24.4648544,3.40000879 Z M72.048932,3.68216549 L72.3693204,1.30328571 L85.7487379,1.30328571 L85.8982524,4.30328571 L72.048932,3.68216549 Z" id="脚-3" fill="#FFDEC4"></path>
                </g>
                <g id="头" transform="translate(58.000000, 0.000000)">
                    <path d="M4.74989362,17.2537206 C4.74989362,17.2537206 3.52861702,31.7170441 5.54808511,40.2831324 C7.03978723,46.5885 11.9379787,47.6990294 11.9379787,47.6990294 C12.9645201,48.0985576 14.108565,48.0985576 15.1351064,47.6990294 C15.9701156,47.3853918 16.7720585,46.9933372 17.5296809,46.5283676 L16.0292553,57.7842059 L27.0469149,54.3340588 L28.3161702,34.0383235 C30.7262587,32.0102291 32.6920645,29.5265988 34.0954255,26.7367206 C35.5217021,23.8158235 33.2143617,14.6624853 33.2143617,14.6624853 C33.2143617,14.6624853 28.5255319,5.05794118 11.5410638,7.10713235 C5.44340426,7.84108824 4.74989362,17.2537206 4.74989362,17.2537206 Z" id="微博_杨锦Vincent" fill="#FFDEC4"></path>
                    <path d="M12.0034043,17.2793088 C12.0034043,17.2793088 7.52829787,13.33275 5.85340426,19.0018235 C4.17851064,24.6708971 4.57542553,28.4600882 4.57542553,28.4600882 C4.57542553,28.4600882 -1.34340426,21.20625 0.580106383,12.9728088 C3.96914894,-1.52719118 14.2017021,0.0537352941 14.2017021,0.0537352941 C14.2017021,0.0537352941 17.5820213,0.145852941 19.475,1.34594118 C20.5362615,2.01269397 21.5625577,2.73120927 22.55,3.49876471 C22.55,3.49876471 37.5717021,-2.37330882 40.5681915,15.9875294 C42.0293617,24.9297647 30.9026596,37.9507647 30.9026596,37.9507647 L27.8276596,40.1040147 L28.2638298,33.6442647 C28.2638298,33.6442647 31.657234,30.2696029 31.3431915,28.0459853 C30.6365957,23.1010588 27.3871277,26.3234706 27.3871277,26.3234706 L26.9465957,29.7685 L23.8715957,28.9074559 C23.8715957,28.9074559 25.1626596,21.4442206 22.1138298,18.5719412 C18.9297872,15.5776912 12.0034043,17.2793088 12.0034043,17.2793088 Z" id="站酷_杨锦Vincent" fill="#5A2F02"></path>
                </g>
                <g id="上半身" transform="translate(0.000000, 51.000000)">
                    <path d="M70.2207273,4.86392953 C70.2207273,4.86392953 60.3301818,9.25352685 55.4814545,17.3602181 C47.4917818,30.7233456 42.9090909,53.557349 42.9090909,53.557349 C42.9090909,53.557349 42.5400727,60.5039933 37.2751273,70.3626879 C31.5467636,81.086943 29.4742545,82.4285403 29.4742545,82.4285403 C29.4742545,82.4285403 21.2914909,87.981594 19.0688,88.4614664 C16.3569455,89.0478826 9.96778182,91.9087919 9.96778182,91.9087919 L14.3016,105.265101 C14.3016,105.265101 32.1346182,103.613674 44.6469091,97.9395872 C53.9925091,93.6987248 57.6483636,82.4268356 57.6483636,82.4268356 L70.2207273,4.86392953 Z" id="胳膊" fill="url(#linearGradient-1)"></path>
                    <path d="M75.4213091,6.15651678 L85.8267636,0.123590604 C85.8267636,0.123590604 89.2723636,1.81891275 92.3274909,3.57091611 C94.8591273,5.0199094 96.2322182,5.72565436 96.2322182,5.72565436 C96.2322182,5.72565436 104.462182,9.89406711 106.633382,14.7750436 C109.379564,20.945198 109.667055,38.4750336 109.667055,38.4750336 C109.667055,38.4750336 110.482327,52.0806544 110.100436,66.4845 C109.465382,90.4683221 108.366909,120.348695 108.366909,120.348695 C108.366909,120.348695 92.4690909,126.707644 77.5925091,126.812909 C61.9306909,126.923289 47.2472,120.779983 47.2472,120.779983 L56.7816,33.3042584 C56.7816,33.3042584 58.2233455,18.3668423 63.72,9.60384228 C66.1357818,5.74611074 75.4213091,2.27832886 75.4213091,2.27832886 L75.4213091,6.15651678 Z" id="衣服" fill="#6997FF"></path>
                    <path d="M99.6992727,7.88039262 C99.6992727,7.88039262 108.435564,13.4781946 111.404873,18.6532315 C115.884582,26.4654362 117.9056,61.7445872 117.9056,61.7445872 C117.9056,61.7445872 118.669382,67.7319128 115.738691,72.5174262 C112.606327,77.6315201 84.0932364,94.925255 84.0932364,94.925255 L60.6863273,107.852406 L53.3145455,91.4775034 L93.1942545,62.1754497 C93.1942545,62.1754497 95.0264727,60.7311443 95.3654545,58.7281242 C95.6786909,56.8572181 91.8941091,35.0277081 91.8941091,35.0277081 C91.8941091,35.0277081 90.3622545,26.3068993 92.7608727,19.9458188 C94.8977455,14.2815336 99.6992727,7.88039262 99.6992727,7.88039262 Z" id="胳膊-2" fill="url(#linearGradient-2)"></path>
                    <path d="M3.46276364,70.7935503 L48.1139636,70.7935503 C48.6890051,70.7938893 49.2403588,71.0210962 49.6467331,71.425188 C50.0531074,71.8292799 50.2812142,72.3771555 50.2808727,72.9482886 L51.5810189,102.250342 C51.5810189,102.82151 51.3534033,103.369451 50.9470043,103.773568 C50.5406053,104.177684 49.9891855,104.405081 49.4141091,104.405081 L6.49643636,104.405081 C5.92135994,104.405081 5.36994011,104.177684 4.96354114,103.773568 C4.55714217,103.369451 4.3290719,102.82151 4.32952727,102.250342 L1.29585416,72.9482886 C1.29585416,72.3771555 1.5236199,71.8292799 1.92999421,71.425188 C2.33636851,71.0210962 2.88772218,70.7938893 3.46276364,70.7935503 L3.46276364,70.7935503 Z" id="iPad" fill="#535353"></path>
                    <path d="M53.3145455,91.9087919 L40.9224,92.2983154 C40.9224,92.2983154 39.8024727,92.2480268 39.7638545,94.2480638 C39.7809713,94.7506209 40.0789088,95.201723 40.5362182,95.4174866 L43.6213818,96.5873356 C42.1062155,96.9912653 40.5560433,97.2522471 38.9914909,97.3668087 C36.9363478,97.4819173 34.8763067,97.4819173 32.8211636,97.3668087 C32.8211636,97.3668087 31.4781091,97.2300067 31.6626182,99.3161309 C31.8642909,101.515617 32.4349818,104.774574 32.4349818,104.774574 C32.4349818,104.774574 32.6967273,107.000057 35.5201455,107.502091 C39.1502545,108.14945 47.8608,108.281564 47.8608,108.281564 C50.0529477,108.310321 52.2442821,108.179991 54.4173091,107.891614 C56.2023273,107.614601 59.8152727,106.332242 59.8152727,106.332242 C59.8152727,106.332242 58.2576727,102.440842 56.7558545,98.7007349 C55.7794849,96.3553256 54.6292234,94.085111 53.3145455,91.9087919 Z M4.06349091,92.0984396 L14.6105455,91.474094 C14.6105455,91.474094 15.5545455,91.3368658 15.7304727,93.2286544 C15.7647247,93.6909265 15.5490209,94.1364437 15.1640727,94.3985034 L12.6281455,95.7541644 C13.9402637,96.0151022 15.2763365,96.1385168 16.6144,96.1223792 C18.3680718,96.0663596 20.1164766,95.9011054 21.8493091,95.6275906 C21.8493091,95.6275906 22.9821091,95.3897852 22.9735758,97.3817248 C22.9649455,99.4819128 22.7117818,102.615574 22.7117818,102.615574 C22.5956285,103.974348 21.6262622,105.111213 20.296,105.448782 C17.2623273,106.353977 9.87767273,107.177346 9.87767273,107.177346 C8.02133576,107.379918 6.15147717,107.432084 4.28661818,107.333326 C3.60436364,107.279628 2.6904,107.42751 2.04676364,106.992386 C1.49279753,106.545482 1.06053157,105.967721 0.789527273,105.31198 C0.278349557,102.710134 0.292935149,100.033326 0.832436364,97.4371275 C1.08516082,96.2284889 1.4279467,95.0401691 1.85796364,93.8819799 C2.15957356,92.8973344 3.03155122,92.1921936 4.06349091,92.0984396 L4.06349091,92.0984396 Z" id="手" fill="#FFDEC4"></path>
                </g>
            </g>
        </g>
    </g>
</svg>