<?xml version="1.0" encoding="utf-8"?>
<!-- Generator: Adobe Illustrator 22.1.0, SVG Export Plug-In . SVG Version: 6.00 Build 0)  -->
<svg version="1.1" id="图层_1" xmlns="http://www.w3.org/2000/svg" xmlns:xlink="http://www.w3.org/1999/xlink" x="0px" y="0px"
	 viewBox="0 0 100 100" style="enable-background:new 0 0 100 100;" xml:space="preserve">
<style type="text/css">
	.st0{fill:#FFFFFF;}
	.st1{fill:#999999;}
	.st2{opacity:0.4;fill:#999999;}
	.st3{fill:#FAFAFA;}
	.st4{opacity:0.4;}
</style>
<g>
	<path class="st0" d="M91.5,33.4C93.3,19.2,81.5,6,65.2,3.8s-31.1,7.6-33,21.8c-1.7,12.7,11.3,28.5,22.1,32.8
		c-0.2,0-0.4-0.1-0.5,0.1C48.5,62.7,41,62,38.8,56.9c-2-4.6-3.1-1.1-3.1-1.1s-4.6-2.4-5.7,1.1c-2.3,7.5,19.8,9.2,22.2,8.3l2.6,21.9
		c0,0-7.1,1.6-8.1,2.8c-1,1.2-0.2,2.6,0.2,2.7c0.4,0.2-1.2,1.1-0.3,2.1c0.9,0.9,5.8-1.2,8.6-2.2c2.8-1,3-2.4,3-2.4
		s-0.2-11.1,6.1-9.9c3.7,0.7,7.2,9.7,7.2,9.7s-4.7,1.4-3.4,4c0.7,1.5,2.1,1,2.1,1s-0.2,1.9,2.4,1.6c1.4-0.2,7.7-3.3,7.4-4.8
		c-0.6-2.9-4.1-5-4.1-5l-8.5-21c0,0,10-3.8,12.7,5.2c0.2,0.6-1.2,1-0.8,1.7c0.4,0.6,1.6,0.3,1.6,0.3s0.6,2.1,1.3,2.6
		c1.9,1.6,6.7-0.4,0.2-10.2c-3.4-5.2-16.7-6.1-20.2-5.8c-0.1,0-0.2-0.1-0.4-0.1C73.5,58.2,89.8,46.1,91.5,33.4z"/>
	<path class="st1" d="M72,97.1c-0.7,0-1.3-0.2-1.7-0.6c-0.3-0.3-0.5-0.7-0.5-1c-0.7,0-1.5-0.2-2.1-1.3c-0.3-0.7-0.4-1.4-0.1-2
		c0.6-1.3,2.4-2.2,3.3-2.5c-1.1-2.7-4-8.4-6.6-8.9c-1.2-0.2-2.1,0-2.9,0.7c-2.7,2.3-2.6,8.6-2.6,8.7c0,0.3-0.3,1.8-3.3,2.9
		c-0.5,0.2-1.1,0.4-1.7,0.6c-3.9,1.4-6.5,2.3-7.4,1.4c-0.9-0.9-0.3-1.8,0-2.2c-0.2-0.2-0.4-0.6-0.6-1c-0.2-0.8,0-1.6,0.5-2.2
		c1-1.2,6.1-2.5,8-2.9l-2.4-21c-3.5,0.5-16.7-0.7-21-4.7c-1.3-1.3-1.8-2.7-1.3-4.3c0.3-1,0.9-1.7,1.7-2c1.5-0.6,3.3,0,4.1,0.4
		c0.2-0.5,0.7-1.1,1.4-1.1c0.8,0,1.6,0.8,2.4,2.7c0.8,1.9,2.5,3.3,4.7,3.8c2.9,0.7,6.3-0.1,9-2.1c-11.1-5.1-22.9-20.7-21.3-32.8
		C33.5,11.1,48.6,1.2,65.2,3.3C81.8,5.5,93.8,19,92,33.4c-1.5,11.3-14.5,22.4-26,25.7c5.4,0.3,14,1.8,16.8,6
		c4.9,7.4,3.3,10.1,2.4,10.9c-0.9,0.8-2.3,0.8-3.3,0c-0.6-0.5-1-1.7-1.3-2.4c-0.5,0.1-1.3,0-1.7-0.6c-0.4-0.7,0.2-1.2,0.5-1.5
		c0.1-0.1,0.3-0.3,0.3-0.3c-0.7-2.3-2-4-3.9-4.8c-2.9-1.4-6.5-0.6-7.8-0.2l8.3,20.3c0.7,0.5,3.6,2.5,4.1,5.3c0.1,0.4,0,0.7-0.3,1.1
		c-1.3,1.8-6.3,4.1-7.5,4.3C72.4,97.1,72.2,97.1,72,97.1z M70.8,94.2L70.7,95c0,0,0,0.5,0.3,0.8c0.3,0.3,0.8,0.4,1.5,0.3
		c1.1-0.1,5.8-2.4,6.9-3.9c0.1-0.2,0.2-0.3,0.2-0.4c-0.5-2.6-3.8-4.7-3.8-4.7L75.5,87l-8.8-21.6l0.5-0.2c0.2-0.1,5-1.9,9,0.1
		c2.1,1,3.6,2.9,4.4,5.5c0.2,0.6-0.3,1-0.6,1.3c-0.1,0.1-0.3,0.3-0.3,0.3c0.1,0.1,0.7,0.1,1,0l0.5-0.1l0.1,0.5
		c0.2,0.8,0.7,2.1,1.1,2.4c0.5,0.4,1.4,0.6,2,0c1.2-1,1.1-4.1-2.6-9.6c-3.1-4.7-15.6-5.9-19.8-5.6c-0.2,0-0.4-0.1-0.5-0.1l-2-0.7
		l2.1-0.3C73.5,57.7,89.4,45.6,91,33.3c1.8-13.9-9.8-26.9-25.9-29C49,2.2,34.5,11.8,32.7,25.7c-1.3,10.1,8.5,27,21.8,32.2l2,0.8
		l-2.2,0.2c-0.1,0-0.2,0-0.2,0c0,0,0,0-0.1,0c-3,2.4-6.9,3.4-10.2,2.6c-2.5-0.6-4.4-2.2-5.4-4.4C37.5,55,37,55,36.9,55
		c-0.2,0-0.6,0.5-0.7,0.9L36,56.5l-0.5-0.3c0,0-2.3-1.2-3.8-0.6c-0.6,0.2-0.9,0.7-1.2,1.4c-0.4,1.2,0,2.3,1,3.3
		c4.3,4.1,18.7,5.1,20.6,4.4l0.6-0.2l2.7,23L55,87.6c-2.7,0.6-7.2,1.9-7.9,2.7c-0.3,0.4-0.4,0.8-0.4,1.2c0.1,0.4,0.3,0.7,0.4,0.8
		c0.2,0.1,0.3,0.2,0.4,0.4c0.1,0.3-0.1,0.6-0.3,0.8c-0.4,0.5-0.4,0.7-0.2,1c0.6,0.5,4.5-1,6.3-1.7c0.6-0.2,1.2-0.5,1.7-0.6
		c2.4-0.8,2.6-2,2.6-2c0-0.2-0.1-6.8,2.9-9.4c1-0.9,2.3-1.2,3.8-0.9c3.9,0.7,7.4,9.6,7.5,10l0.2,0.5l-0.5,0.2
		c-0.7,0.2-2.7,1-3.2,2.1c-0.2,0.4-0.1,0.8,0.1,1.2c0.5,1.1,1.4,0.8,1.5,0.7L70.8,94.2z"/>
</g>
<g>
	<g>
		<ellipse transform="matrix(0.8957 -0.4447 0.4447 0.8957 -10.9113 24.0811)" class="st0" cx="45.9" cy="35.3" rx="6.1" ry="8.7"/>
		<path class="st1" d="M47.7,44c-2.9,0-6-2.2-7.8-5.8c-2.2-4.5-1.4-9.5,1.9-11.1c3.3-1.6,7.7,0.7,10,5.3c1.1,2.2,1.5,4.5,1.2,6.6
			c-0.3,2.1-1.4,3.8-3,4.6C49.2,43.8,48.5,44,47.7,44z M44.1,27.6c-0.6,0-1.2,0.1-1.8,0.4c-2.8,1.4-3.4,5.8-1.4,9.8
			c2,4,5.9,6.2,8.7,4.8c1.3-0.7,2.2-2,2.5-3.8c0.3-1.9-0.1-4-1.1-6C49.3,29.6,46.5,27.6,44.1,27.6z"/>
	</g>
	<path class="st2" d="M41.3,28.3c0,0-2.5,5.8,1.9,10.5c6.8,7.1,9-3,9.2-2c0,0-0.1,5.4-3.5,6.6C43.8,45.2,35.7,34.9,41.3,28.3z"/>
</g>
<g>
	<g>
		<ellipse transform="matrix(0.5498 -0.8353 0.8353 0.5498 3.5918 77.2173)" class="st0" cx="73.4" cy="35.3" rx="9.8" ry="6.9"/>
		<path class="st1" d="M71,44.8c-1.2,0-2.2-0.3-3.2-0.9l0,0c-1.7-1.1-2.7-3.1-2.7-5.5c-0.1-2.4,0.7-4.9,2.2-7.2
			c1.5-2.3,3.5-4,5.7-4.9c2.3-0.9,4.4-0.8,6.1,0.3c3.4,2.3,3.7,8,0.5,12.7C77.4,42.8,74,44.8,71,44.8z M68.3,43.1
			c3,2,7.7,0,10.5-4.2c2.8-4.3,2.7-9.4-0.3-11.3c-1.4-0.9-3.3-1-5.2-0.2c-2,0.8-3.9,2.4-5.3,4.5c-1.4,2.1-2.1,4.5-2,6.6
			C66.1,40.5,66.9,42.1,68.3,43.1L68.3,43.1z"/>
	</g>
	<path class="st2" d="M79.5,28c0,0,2.1,6.8-3.6,11.5c-8.6,7-9.7-4.7-10.1-3.5c0,0-0.6,6.1,3,7.9C74.4,46.7,84.9,36.2,79.5,28z"/>
</g>
<path class="st2" d="M91.1,25.4C89.4,15.4,79.3,7.8,71.7,5.4C57.1,0.7,41.5,8.9,42.1,9.7c6.9-4.3,45-7.6,44.8,21.2
	c-0.2,22.5-26.2,28.2-26.5,28.2c1.2-0.2,1.3,0.2,1.3,0.2C61.8,60,95.4,51.7,91.1,25.4z"/>
<path class="st2" d="M63,59.6c0,0,11.6,1.4,15.5,4.5c5,3.9,6.4,8.2,5.2,9.5c-1.3,1.4-2.3-0.2-2.3-0.2s-0.1,1.8,1.6,2.2
	s3.8-0.6,2.5-4.7C84.1,66.8,79.9,58.9,63,59.6z"/>
<path class="st2" d="M67,65.8c0,0-0.8,1.8,3.1,13.6c0.9,2.7,4.2,9.4,6.1,9.6c1.7,0.2,2,1.9,1.5,3c-0.5,1.1-6.3,3.9-6.4,2.8
	s-0.5-0.4-0.9-1.5c-0.3-1.1,1.6-3.5,1.6-3.5s-4,1.6-3.9,3.4c0.1,1.9,0.7,1.8,1.1,1.9c0.5,0.1,1-0.1,1-0.1s-0.2,0.8,0.4,1.2
	c0.6,0.4,4.3,0.3,6.8-1.9c2.5-2.2,2.6-2.6,2.6-2.6s0.2-2-1.3-2.9c-1.5-0.9-2.7-2.2-2.7-2.2L67,65.8z"/>
<g>
	<path class="st3" d="M25.7,39.9L4.5,56.2c-0.8,0.6-0.9,1.7-0.4,2.4l6.6,8.6l5.7,7.5l6.6,8.6c0.6,0.7,1.6,0.8,2.4,0.2l21.1-16.3
		c0.8-0.6,0.9-1.7,0.4-2.4l-6.6-8.6l-5.7-7.5l-6.6-8.6C27.5,39.5,26.4,39.4,25.7,39.9z"/>
	<path class="st1" d="M26.8,40.6c0.2,0,0.4,0.1,0.5,0.2l6.6,8.6l5.7,7.5l6.6,8.6c0.1,0.2,0.1,0.4,0.1,0.5c0,0.2-0.1,0.4-0.3,0.5
		L24.8,82.6c-0.2,0.1-0.4,0.2-0.5,0.2c-0.2,0-0.4-0.1-0.5-0.2L17.2,74l-5.7-7.5L4.9,58c-0.1-0.2-0.1-0.4-0.1-0.5
		c0-0.2,0.1-0.4,0.3-0.5l21.1-16.3C26.5,40.6,26.6,40.6,26.8,40.6 M26.8,39.6c-0.4,0-0.8,0.1-1.1,0.4L4.5,56.2
		c-0.8,0.6-0.9,1.7-0.4,2.4l6.6,8.6l5.7,7.5l6.6,8.6c0.3,0.4,0.8,0.6,1.3,0.6c0.4,0,0.8-0.1,1.1-0.4l21.1-16.3
		c0.8-0.6,0.9-1.7,0.4-2.4l-6.6-8.6l-5.7-7.5l-6.6-8.6C27.7,39.8,27.3,39.6,26.8,39.6L26.8,39.6z"/>
</g>
<g>
	<path class="st0" d="M25.5,44.9L9.4,57.4c-0.6,0.5-0.7,1.3-0.3,1.9l5.2,6.8l4.5,5.9l5.2,6.8c0.4,0.6,1.3,0.7,1.9,0.2l16.1-12.4
		c0.6-0.5,0.7-1.3,0.3-1.9l-5.2-6.8L32.6,52l-5.2-6.8C26.9,44.6,26.1,44.5,25.5,44.9z"/>
	<path class="st1" d="M26.4,45.7c0.1,0,0.2,0,0.2,0.1l5.2,6.8l4.5,5.9l5.2,6.8c0.1,0.1,0.1,0.2,0.1,0.2c0,0.1,0,0.2-0.1,0.2
		L25.4,78.2c-0.1,0.1-0.2,0.1-0.2,0.1c-0.1,0-0.2,0-0.2-0.1l-5.2-6.8l-4.5-5.9l-5.2-6.8c-0.1-0.1-0.1-0.2-0.1-0.2
		c0-0.1,0-0.2,0.1-0.2l16.1-12.4C26.2,45.7,26.3,45.7,26.4,45.7 M26.4,44.7c-0.3,0-0.6,0.1-0.8,0.3L9.4,57.4
		c-0.6,0.5-0.7,1.3-0.3,1.9l5.2,6.8l4.5,5.9l5.2,6.8c0.3,0.3,0.6,0.5,1,0.5c0.3,0,0.6-0.1,0.8-0.3l16.1-12.4
		c0.6-0.5,0.7-1.3,0.3-1.9l-5.2-6.8L32.6,52l-5.2-6.8C27.1,44.8,26.7,44.7,26.4,44.7L26.4,44.7z"/>
</g>
<g>
	<path class="st0" d="M19.7,41.8l-2.7,2c0,0-0.1-0.1-0.1-0.1c-1.6-1.7-3.8-1.7-5.6-0.4c-1.8,1.4-2.3,3.4-1.1,5.5
		c0,0,0.1,0.1,0.1,0.1l-2.6,2c-0.5,0.4-0.6,0.6-0.3,1l0.2,0.3l1.5,2l1.6,2.1c0.2,0.2,0.6,0.5,1,0.1l12.1-9.3
		c0.4-0.3,0.5-0.6,0.1-1.2l-1.5-2l-1.5-2l-0.2-0.2C20.4,41.5,20,41.6,19.7,41.8z"/>
	<path class="st1" d="M11.4,57.2c0,0-0.1,0-0.1,0c-0.4,0-0.7-0.3-0.8-0.5l-3.3-4.3c-0.1-0.1-0.4-0.5-0.2-1c0.1-0.3,0.3-0.5,0.6-0.7
		l2.2-1.7C8.6,46.7,9.1,44.5,11,43c2-1.5,4.4-1.4,6.1,0.2l2.3-1.8c0.5-0.4,1.3-0.4,1.7,0.1l3.2,4.2c0.6,0.7,0.5,1.4-0.2,1.9
		l-12.1,9.3C11.9,57.1,11.6,57.2,11.4,57.2z M7.8,51.6C7.8,51.6,7.8,51.7,7.8,51.6l3.4,4.4c0,0,0.1,0.1,0.2,0.1c0,0,0.1,0,0.1,0
		l12.1-9.3c0.1-0.1,0.2-0.2,0.2-0.2l0,0c0,0,0-0.1-0.2-0.3l-3.2-4.2c-0.1-0.1-0.2,0-0.3,0h0l-3.1,2.4L16.6,44
		c-1.3-1.4-3.3-1.5-4.9-0.3c-1.6,1.3-2,3-1,4.9L11,49l-0.3,0.4l-2.6,2C7.9,51.5,7.8,51.6,7.8,51.6z"/>
</g>
<circle class="st1" cx="13.8" cy="46.3" r="1.2"/>
<g class="st4">
	<path class="st1" d="M18.6,56.9l2.7-2.1l5.4-4.1c0.3-0.2,0.5-0.3,0.9,0.2l0.9,1.2c0.2,0.3,0.2,0.7,0,0.9l-5.4,4.1l-2.7,2.1l-3.9,3
		c-0.3,0.2-0.7,0.1-0.9-0.2l-0.9-1.2c-0.4-0.5-0.2-0.7,0-0.9L18.6,56.9z"/>
</g>
<path class="st2" d="M31,55.8c0.3,0.4,0.2,0.9-0.2,1.1l-11.2,8.6c-0.4,0.3-0.9,0.2-1.2-0.1l0,0c-0.3-0.4-0.2-0.9,0.2-1.1l11.2-8.6
	C30.2,55.4,30.7,55.5,31,55.8L31,55.8z"/>
<g class="st4">
	<g>
		<g transform="scale(0.1953125, 0.1953125)">
			<path class="st1" d="M178.5,338.8l-0.8,0.6l-1.2,0.9l-16.4,12.6l-0.6-0.8c0,0-3.7-4.1,1.9-10.2c0,0,4.4-4.5,3.7-6.1
				c0,0,0.1-0.3-1.3-1.8c-2.9-3.1-6.3-3-8.2-3.6c-1.9-0.6-3.1-2-3.1-2c-0.3-0.4-0.2-0.6-0.2-1.1c0.1-0.5-0.2-0.8-0.6-1.1
				c-1.2-1.1-2.8-3.1-3.5-4.5c-1.1-1.5-0.6-3.8-0.6-3.8c0.1-0.4,0.2-0.9,0.1-1.3c0-0.1,0-0.2-0.1-0.4c-0.2-0.4-0.7-0.4-0.9-0.8
				c-0.2-0.4,0.4-0.8,0.7-1.1c0.7-0.6,1.5-1.3,2.3-1.8c6.2-4,9.7-3.3,9.7-3.3c0.9,0.2,1.7,0.6,2.4,1.2c0.2,0.2,0.4,0.3,0.6,0.5
				c1,0.9,1.8,2,2.6,3.1c0.4,0.5,0.7,1.1,1,1.6c0.2,0.3,0.4,0.5,0.7,0.6c0.3,0.1,0.5,0.1,0.8,0.2c0.1,0.1,0.2,0.2,0.3,0.3
				c0,0,1.1,1.5,1.2,3.5c0.1,2-0.9,5.2,1.4,8.8c1.1,1.7,1.4,1.7,1.4,1.7c1.4,1.1,6.8-2,6.8-2c7.5-3.8,10.4,0.8,10.4,0.8l0.6,0.8
				l-4.3,3.3l0.7-0.5l-0.6,0.4l-1.2,0.9L178.5,338.8L178.5,338.8z"/>
		</g>
	</g>
</g>
<path class="st2" d="M28.4,66.1c0.3,0.4,0.3,0.8,0,1l-4.7,3.6c-0.3,0.2-0.7,0.1-1-0.2l0,0c-0.3-0.4-0.3-0.8,0-1l4.7-3.6
	C27.7,65.7,28.1,65.8,28.4,66.1L28.4,66.1z"/>
<path class="st2" d="M30.4,68.7c0.3,0.4,0.3,0.8,0,1l-4.7,3.6c-0.3,0.2-0.7,0.1-1-0.2l0,0c-0.3-0.4-0.3-0.8,0-1l4.7-3.6
	C29.7,68.2,30.1,68.3,30.4,68.7L30.4,68.7z"/>
<g>
	<path class="st1" d="M62,62.2c-2,0.2-3.5,2-3.3,4s2,3.5,4,3.3s3.5-2,3.3-4C65.8,63.5,64,62,62,62.2z M65.2,65.6
		c0.1,1.5-1,3-2.6,3.1c-0.8,0.1-1.5-0.2-2.1-0.6c-0.6-0.5-0.9-1.2-1-1.9c-0.1-1.4,0.8-2.7,2.2-3c0.1,0,0.2,0,0.4-0.1
		c0.8-0.1,1.5,0.2,2.1,0.6C64.7,64.1,65.1,64.8,65.2,65.6z"/>
	<path class="st1" d="M63.2,64.2l-0.9,1.1l-1.1-0.9c-0.1-0.1-0.3,0-0.4,0.2c-0.1,0.2-0.2,0.4-0.1,0.5l1.1,0.9L60.9,67
		c-0.1,0.1,0,0.3,0.2,0.4c0.2,0.1,0.4,0.2,0.5,0.1l0.9-1.1l1.1,0.9c0.1,0.1,0.3,0,0.4-0.2c0.1-0.2,0.2-0.4,0.1-0.5l-1.1-0.9l0.9-1.1
		c0.1-0.1,0-0.3-0.2-0.4C63.5,64.1,63.3,64.1,63.2,64.2z"/>
</g>
</svg>
